<?xml version="1.0" encoding="UTF-8" standalone="no"?>
<svg
   width="496.5pt"
   height="226.5pt"
   viewBox="0 0 496.5 226.5"
   version="1.1"
   id="svg112"
   xmlns="http://www.w3.org/2000/svg"
   xmlns:svg="http://www.w3.org/2000/svg">
  <defs
     id="defs116" />
  <path
     fill-rule="nonzero"
     fill="rgb(9.01947%, 74.508667%, 81.175232%)"
     fill-opacity="1"
     stroke-width="1"
     stroke-linecap="butt"
     stroke-linejoin="miter"
     stroke="rgb(0%, 0%, 0%)"
     stroke-opacity="1"
     stroke-miterlimit="4"
     d="M 177 98 C 177 84.1875 188.1875 73 202 73 C 215.8125 73 227 84.1875 227 98 C 227 111.8125 215.8125 123 202 123 C 188.1875 123 177 111.8125 177 98 Z M 177 98 "
     transform="matrix(0.75, 0, 0, 0.75, 0, 0)"
     id="path2" />
  <path
     fill-rule="nonzero"
     fill="rgb(9.01947%, 74.508667%, 81.175232%)"
     fill-opacity="1"
     stroke-width="1"
     stroke-linecap="butt"
     stroke-linejoin="miter"
     stroke="rgb(0%, 0%, 0%)"
     stroke-opacity="1"
     stroke-miterlimit="4"
     d="M 177 163 C 177 149.1875 188.1875 138 202 138 C 215.8125 138 227 149.1875 227 163 C 227 176.8125 215.8125 188 202 188 C 188.1875 188 177 176.8125 177 163 Z M 177 163 "
     transform="matrix(0.75, 0, 0, 0.75, 0, 0)"
     id="path4" />
  <path
     fill-rule="nonzero"
     fill="rgb(9.01947%, 74.508667%, 81.175232%)"
     fill-opacity="1"
     stroke-width="1"
     stroke-linecap="butt"
     stroke-linejoin="miter"
     stroke="rgb(0%, 0%, 0%)"
     stroke-opacity="1"
     stroke-miterlimit="4"
     d="M 177 223 C 177 209.1875 188.1875 198 202 198 C 215.8125 198 227 209.1875 227 223 C 227 236.8125 215.8125 248 202 248 C 188.1875 248 177 236.8125 177 223 Z M 177 223 "
     transform="matrix(0.75, 0, 0, 0.75, 0, 0)"
     id="path6" />
  <path
     fill-rule="nonzero"
     fill="rgb(9.01947%, 74.508667%, 81.175232%)"
     fill-opacity="1"
     stroke-width="1"
     stroke-linecap="butt"
     stroke-linejoin="miter"
     stroke="rgb(0%, 0%, 0%)"
     stroke-opacity="1"
     stroke-miterlimit="4"
     d="M 269 48 C 269 34.1875 280.1875 23 294 23 C 307.8125 23 319 34.1875 319 48 C 319 61.8125 307.8125 73 294 73 C 280.1875 73 269 61.8125 269 48 Z M 269 48 "
     transform="matrix(0.75, 0, 0, 0.75, 0, 0)"
     id="path8" />
  <path
     fill-rule="nonzero"
     fill="rgb(9.01947%, 74.508667%, 81.175232%)"
     fill-opacity="1"
     stroke-width="1"
     stroke-linecap="butt"
     stroke-linejoin="miter"
     stroke="rgb(0%, 0%, 0%)"
     stroke-opacity="1"
     stroke-miterlimit="4"
     d="M 269 116 C 269 102.1875 280.1875 91 294 91 C 307.8125 91 319 102.1875 319 116 C 319 129.8125 307.8125 141 294 141 C 280.1875 141 269 129.8125 269 116 Z M 269 116 "
     transform="matrix(0.75, 0, 0, 0.75, 0, 0)"
     id="path10" />
  <path
     fill-rule="nonzero"
     fill="rgb(9.01947%, 74.508667%, 81.175232%)"
     fill-opacity="1"
     stroke-width="1"
     stroke-linecap="butt"
     stroke-linejoin="miter"
     stroke="rgb(0%, 0%, 0%)"
     stroke-opacity="1"
     stroke-miterlimit="4"
     d="M 268 183 C 268 169.1875 279.1875 158 293 158 C 306.8125 158 318 169.1875 318 183 C 318 196.8125 306.8125 208 293 208 C 279.1875 208 268 196.8125 268 183 Z M 268 183 "
     transform="matrix(0.75, 0, 0, 0.75, 0, 0)"
     id="path12" />
  <path
     fill-rule="nonzero"
     fill="rgb(9.01947%, 74.508667%, 81.175232%)"
     fill-opacity="1"
     stroke-width="1"
     stroke-linecap="butt"
     stroke-linejoin="miter"
     stroke="rgb(0%, 0%, 0%)"
     stroke-opacity="1"
     stroke-miterlimit="4"
     d="M 269 249 C 269 235.1875 280.1875 224 294 224 C 307.8125 224 319 235.1875 319 249 C 319 262.8125 307.8125 274 294 274 C 280.1875 274 269 262.8125 269 249 Z M 269 249 "
     transform="matrix(0.75, 0, 0, 0.75, 0, 0)"
     id="path14" />
  <path
     fill-rule="nonzero"
     fill="rgb(9.01947%, 74.508667%, 81.175232%)"
     fill-opacity="1"
     stroke-width="1"
     stroke-linecap="butt"
     stroke-linejoin="miter"
     stroke="rgb(0%, 0%, 0%)"
     stroke-opacity="1"
     stroke-miterlimit="4"
     d="M 348 151 C 348 137.1875 359.1875 126 373 126 C 386.8125 126 398 137.1875 398 151 C 398 164.8125 386.8125 176 373 176 C 359.1875 176 348 164.8125 348 151 Z M 348 151 "
     transform="matrix(0.75, 0, 0, 0.75, 0, 0)"
     id="path16" />
  <path
     fill="none"
     stroke-width="1"
     stroke-linecap="butt"
     stroke-linejoin="miter"
     stroke="rgb(0%, 0%, 0%)"
     stroke-opacity="1"
     stroke-miterlimit="4"
     d="M 110 154 L 175.46875 99.28125 "
     transform="matrix(0.75, 0, 0, 0.75, 0, 0)"
     id="path18" />
  <path
     fill="none"
     stroke-width="1"
     stroke-linecap="butt"
     stroke-linejoin="miter"
     stroke="rgb(0%, 0%, 0%)"
     stroke-opacity="1"
     stroke-miterlimit="4"
     d="M 10.931343 -3.292179 C 6.952069 -1.398161 3.304729 -0.299217 0.000000000000028422 0.000000000000028422 C 3.306514 0.299625 6.950617 1.397312 10.928311 3.289719 "
     transform="matrix(-0.575458, 0.480987, -0.480987, -0.575458, 132.75, 73.5)"
     id="path20" />
  <path
     fill="none"
     stroke-width="1"
     stroke-linecap="butt"
     stroke-linejoin="miter"
     stroke="rgb(0%, 0%, 0%)"
     stroke-opacity="1"
     stroke-miterlimit="4"
     d="M 110 154 L 175.609375 221.567708 "
     transform="matrix(0.75, 0, 0, 0.75, 0, 0)"
     id="path22" />
  <path
     fill="none"
     stroke-width="1"
     stroke-linecap="butt"
     stroke-linejoin="miter"
     stroke="rgb(0%, 0%, 0%)"
     stroke-opacity="1"
     stroke-miterlimit="4"
     d="M 10.927818 -3.290982 C 6.948197 -1.398377 3.3068 -0.302628 0.000000000000056843 0.000000000000024869 C 3.30829 0.301402 6.94867 1.397199 10.932241 3.290912 "
     transform="matrix(-0.522498, -0.538048, 0.538048, -0.522498, 132.75, 167.25)"
     id="path24" />
  <path
     fill="none"
     stroke-width="1"
     stroke-linecap="butt"
     stroke-linejoin="miter"
     stroke="rgb(0%, 0%, 0%)"
     stroke-opacity="1"
     stroke-miterlimit="4"
     d="M 110 154 L 175.020833 162.729167 "
     transform="matrix(0.75, 0, 0, 0.75, 0, 0)"
     id="path26" />
  <path
     fill="none"
     stroke-width="1"
     stroke-linecap="butt"
     stroke-linejoin="miter"
     stroke="rgb(0%, 0%, 0%)"
     stroke-opacity="1"
     stroke-miterlimit="4"
     d="M 10.92993 -3.29159 C 6.948951 -1.395807 3.3069 -0.302283 0.000000000000028422 0 C 3.309204 0.301744 6.950613 1.394429 10.930777 3.287686 "
     transform="matrix(-0.743325, -0.0998408, 0.0998408, -0.743325, 132.75, 122.25)"
     id="path28" />
  <path
     fill="none"
     stroke-width="1"
     stroke-linecap="butt"
     stroke-linejoin="miter"
     stroke="rgb(0%, 0%, 0%)"
     stroke-opacity="1"
     stroke-miterlimit="4"
     d="M 223 83 L 267.411458 49.208333 "
     transform="matrix(0.75, 0, 0, 0.75, 0, 0)"
     id="path30" />
  <path
     fill="none"
     stroke-width="1"
     stroke-linecap="butt"
     stroke-linejoin="miter"
     stroke="rgb(0%, 0%, 0%)"
     stroke-opacity="1"
     stroke-miterlimit="4"
     d="M 10.929511 -3.29355 C 6.95052 -1.393165 3.304256 -0.29985 0.000000000000056843 0.000000000000028422 C 3.307373 0.298103 6.949805 1.394397 10.931441 3.292038 "
     transform="matrix(-0.596843, 0.454179, -0.454179, -0.596843, 201.75, 36)"
     id="path32" />
  <path
     fill="none"
     stroke-width="1"
     stroke-linecap="butt"
     stroke-linejoin="miter"
     stroke="rgb(0%, 0%, 0%)"
     stroke-opacity="1"
     stroke-miterlimit="4"
     d="M 223 83 L 267.369792 114.828125 "
     transform="matrix(0.75, 0, 0, 0.75, 0, 0)"
     id="path34" />
  <path
     fill="none"
     stroke-width="1"
     stroke-linecap="butt"
     stroke-linejoin="miter"
     stroke="rgb(0%, 0%, 0%)"
     stroke-opacity="1"
     stroke-miterlimit="4"
     d="M 10.92815 -3.289772 C 6.951908 -1.398311 3.303948 -0.300094 0 -0.000000000000028422 C 3.305837 0.301121 6.951215 1.397089 10.931904 3.29094 "
     transform="matrix(-0.609368, -0.437231, 0.437231, -0.609368, 201.75, 87)"
     id="path36" />
  <path
     fill="none"
     stroke-width="1"
     stroke-linecap="butt"
     stroke-linejoin="miter"
     stroke="rgb(0%, 0%, 0%)"
     stroke-opacity="1"
     stroke-miterlimit="4"
     d="M 223 83 L 267.182292 181.182292 "
     transform="matrix(0.75, 0, 0, 0.75, 0, 0)"
     id="path38" />
  <path
     fill="none"
     stroke-width="1"
     stroke-linecap="butt"
     stroke-linejoin="miter"
     stroke="rgb(0%, 0%, 0%)"
     stroke-opacity="1"
     stroke-miterlimit="4"
     d="M 10.92728 -3.289606 C 6.950608 -1.39539 3.305015 -0.30028 0.000000000000056843 -0.000000000000028422 C 3.308554 0.301019 6.95026 1.39737 10.929867 3.291191 "
     transform="matrix(-0.307801, -0.683929, 0.683929, -0.307801, 201, 137.25)"
     id="path40" />
  <path
     fill="none"
     stroke-width="1"
     stroke-linecap="butt"
     stroke-linejoin="miter"
     stroke="rgb(0%, 0%, 0%)"
     stroke-opacity="1"
     stroke-miterlimit="4"
     d="M 227 98 L 268.458333 247.067708 "
     transform="matrix(0.75, 0, 0, 0.75, 0, 0)"
     id="path42" />
  <path
     fill="none"
     stroke-width="1"
     stroke-linecap="butt"
     stroke-linejoin="miter"
     stroke="rgb(0%, 0%, 0%)"
     stroke-opacity="1"
     stroke-miterlimit="4"
     d="M 10.932209 -3.290382 C 6.951319 -1.39707 3.306042 -0.302413 0.000000000000056843 -0.000000000000085265 C 3.306712 0.297834 6.947478 1.39674 10.930107 3.288078 "
     transform="matrix(-0.200933, -0.722583, 0.722583, -0.200933, 201.75, 186.75)"
     id="path44" />
  <path
     fill="none"
     stroke-width="1"
     stroke-linecap="butt"
     stroke-linejoin="miter"
     stroke="rgb(0%, 0%, 0%)"
     stroke-opacity="1"
     stroke-miterlimit="4"
     d="M 227 163 L 268.3125 49.880208 "
     transform="matrix(0.75, 0, 0, 0.75, 0, 0)"
     id="path46" />
  <path
     fill="none"
     stroke-width="1"
     stroke-linecap="butt"
     stroke-linejoin="miter"
     stroke="rgb(0%, 0%, 0%)"
     stroke-opacity="1"
     stroke-miterlimit="4"
     d="M 10.929589 -3.292378 C 6.948244 -1.394987 3.306679 -0.298123 0.000000000000014211 0.000000000000113687 C 3.308816 0.299925 6.948435 1.399476 10.931746 3.288403 "
     transform="matrix(-0.257253, 0.704501, -0.704501, -0.257253, 201.75, 36)"
     id="path48" />
  <path
     fill="none"
     stroke-width="1"
     stroke-linecap="butt"
     stroke-linejoin="miter"
     stroke="rgb(0%, 0%, 0%)"
     stroke-opacity="1"
     stroke-miterlimit="4"
     d="M 227 163 L 267.671875 117.489583 "
     transform="matrix(0.75, 0, 0, 0.75, 0, 0)"
     id="path50" />
  <path
     fill="none"
     stroke-width="1"
     stroke-linecap="butt"
     stroke-linejoin="miter"
     stroke="rgb(0%, 0%, 0%)"
     stroke-opacity="1"
     stroke-miterlimit="4"
     d="M 10.930269 -3.291374 C 6.950643 -1.397967 3.30722 -0.300843 0.000000000000042633 0.000000000000056843 C 3.306594 0.300375 6.948273 1.397912 10.928921 3.289139 "
     transform="matrix(-0.499704, 0.559282, -0.559282, -0.499704, 201.75, 87)"
     id="path52" />
  <path
     fill="none"
     stroke-width="1"
     stroke-linecap="butt"
     stroke-linejoin="miter"
     stroke="rgb(0%, 0%, 0%)"
     stroke-opacity="1"
     stroke-miterlimit="4"
     d="M 227 163 L 266.197917 182.119792 "
     transform="matrix(0.75, 0, 0, 0.75, 0, 0)"
     id="path54" />
  <path
     fill="none"
     stroke-width="1"
     stroke-linecap="butt"
     stroke-linejoin="miter"
     stroke="rgb(0%, 0%, 0%)"
     stroke-opacity="1"
     stroke-miterlimit="4"
     d="M 10.929159 -3.290735 C 6.950581 -1.396612 3.308289 -0.29814 0.000000000000113687 0.000000000000035527 C 3.304715 0.300468 6.950989 1.396284 10.929459 3.292014 "
     transform="matrix(-0.674096, -0.328778, 0.328778, -0.674096, 201, 137.25)"
     id="path56" />
  <path
     fill="none"
     stroke-width="1"
     stroke-linecap="butt"
     stroke-linejoin="miter"
     stroke="rgb(0%, 0%, 0%)"
     stroke-opacity="1"
     stroke-miterlimit="4"
     d="M 227 163 L 268.119792 247.197917 "
     transform="matrix(0.75, 0, 0, 0.75, 0, 0)"
     id="path58" />
  <path
     fill="none"
     stroke-width="1"
     stroke-linecap="butt"
     stroke-linejoin="miter"
     stroke="rgb(0%, 0%, 0%)"
     stroke-opacity="1"
     stroke-miterlimit="4"
     d="M 10.928789 -3.293251 C 6.949326 -1.399606 3.304872 -0.298736 0 -0.000000000000028422 C 3.308133 0.299874 6.952135 1.395575 10.929719 3.291783 "
     transform="matrix(-0.329132, -0.673923, 0.673923, -0.329132, 201.75, 186.75)"
     id="path60" />
  <path
     fill="none"
     stroke-width="1"
     stroke-linecap="butt"
     stroke-linejoin="miter"
     stroke="rgb(0%, 0%, 0%)"
     stroke-opacity="1"
     stroke-miterlimit="4"
     d="M 227 223 L 268.53125 49.9375 "
     transform="matrix(0.75, 0, 0, 0.75, 0, 0)"
     id="path62" />
  <path
     fill="none"
     stroke-width="1"
     stroke-linecap="butt"
     stroke-linejoin="miter"
     stroke="rgb(0%, 0%, 0%)"
     stroke-opacity="1"
     stroke-miterlimit="4"
     d="M 10.9302 -3.288289 C 6.94963 -1.395283 3.307513 -0.30128 -0.000000000000003553 0 C 3.306949 0.298764 6.950039 1.395266 10.929269 3.289506 "
     transform="matrix(-0.175084, 0.729278, -0.729278, -0.175084, 201.75, 36)"
     id="path64" />
  <path
     fill="none"
     stroke-width="1"
     stroke-linecap="butt"
     stroke-linejoin="miter"
     stroke="rgb(0%, 0%, 0%)"
     stroke-opacity="1"
     stroke-miterlimit="4"
     d="M 227 223 L 268.270833 117.859375 "
     transform="matrix(0.75, 0, 0, 0.75, 0, 0)"
     id="path66" />
  <path
     fill="none"
     stroke-width="1"
     stroke-linecap="butt"
     stroke-linejoin="miter"
     stroke="rgb(0%, 0%, 0%)"
     stroke-opacity="1"
     stroke-miterlimit="4"
     d="M 10.92921 -3.288176 C 6.949558 -1.396051 3.305853 -0.301608 -0.00000000000001954 0.000000000000056843 C 3.307744 0.301926 6.948865 1.396203 10.932019 3.290623 "
     transform="matrix(-0.274023, 0.698149, -0.698149, -0.274023, 201.75, 87)"
     id="path68" />
  <path
     fill="none"
     stroke-width="1"
     stroke-linecap="butt"
     stroke-linejoin="miter"
     stroke="rgb(0%, 0%, 0%)"
     stroke-opacity="1"
     stroke-miterlimit="4"
     d="M 227 223 L 266.567708 184.401042 "
     transform="matrix(0.75, 0, 0, 0.75, 0, 0)"
     id="path70" />
  <path
     fill="none"
     stroke-width="1"
     stroke-linecap="butt"
     stroke-linejoin="miter"
     stroke="rgb(0%, 0%, 0%)"
     stroke-opacity="1"
     stroke-miterlimit="4"
     d="M 10.931249 -3.291914 C 6.951166 -1.39734 3.307386 -0.302491 0 0.000000000000113687 C 3.307505 0.301541 6.948934 1.3945 10.928105 3.289879 "
     transform="matrix(-0.536861, 0.523718, -0.523718, -0.536861, 201, 137.25)"
     id="path72" />
  <path
     fill="none"
     stroke-width="1"
     stroke-linecap="butt"
     stroke-linejoin="miter"
     stroke="rgb(0%, 0%, 0%)"
     stroke-opacity="1"
     stroke-miterlimit="4"
     d="M 227 223 L 267.302083 247.947917 "
     transform="matrix(0.75, 0, 0, 0.75, 0, 0)"
     id="path74" />
  <path
     fill="none"
     stroke-width="1"
     stroke-linecap="butt"
     stroke-linejoin="miter"
     stroke="rgb(0%, 0%, 0%)"
     stroke-opacity="1"
     stroke-miterlimit="4"
     d="M 10.932167 -3.28834 C 6.950149 -1.399036 3.305531 -0.300533 0.000000000000113687 0 C 3.30406 0.300684 6.947011 1.39617 10.931594 3.290885 "
     transform="matrix(-0.637695, -0.394771, 0.394771, -0.637695, 201.75, 186.75)"
     id="path76" />
  <path
     fill="none"
     stroke-width="1"
     stroke-linecap="butt"
     stroke-linejoin="miter"
     stroke="rgb(0%, 0%, 0%)"
     stroke-opacity="1"
     stroke-miterlimit="4"
     d="M 319 249 L 347.432292 152.921875 "
     transform="matrix(0.75, 0, 0, 0.75, 0, 0)"
     id="path78" />
  <path
     fill="none"
     stroke-width="1"
     stroke-linecap="butt"
     stroke-linejoin="miter"
     stroke="rgb(0%, 0%, 0%)"
     stroke-opacity="1"
     stroke-miterlimit="4"
     d="M 10.932877 -3.288633 C 6.95114 -1.399178 3.306167 -0.299144 -0.000000000000014211 0.000000000000056843 C 3.303879 0.298994 6.952911 1.397502 10.929157 3.289969 "
     transform="matrix(-0.212761, 0.719189, -0.719189, -0.212761, 261, 113.25)"
     id="path80" />
  <path
     fill="none"
     stroke-width="1"
     stroke-linecap="butt"
     stroke-linejoin="miter"
     stroke="rgb(0%, 0%, 0%)"
     stroke-opacity="1"
     stroke-miterlimit="4"
     d="M 318 183 L 346.630208 152.458333 "
     transform="matrix(0.75, 0, 0, 0.75, 0, 0)"
     id="path82" />
  <path
     fill="none"
     stroke-width="1"
     stroke-linecap="butt"
     stroke-linejoin="miter"
     stroke="rgb(0%, 0%, 0%)"
     stroke-opacity="1"
     stroke-miterlimit="4"
     d="M 10.928467 -3.291247 C 6.95037 -1.396802 3.307627 -0.302174 -0.000000000000028422 0.000000000000056843 C 3.306652 0.298412 6.948591 1.396194 10.929618 3.289784 "
     transform="matrix(-0.512933, 0.547175, -0.547175, -0.512933, 261, 113.25)"
     id="path84" />
  <path
     fill="none"
     stroke-width="1"
     stroke-linecap="butt"
     stroke-linejoin="miter"
     stroke="rgb(0%, 0%, 0%)"
     stroke-opacity="1"
     stroke-miterlimit="4"
     d="M 319 116 L 346.71875 149.458333 "
     transform="matrix(0.75, 0, 0, 0.75, 0, 0)"
     id="path86" />
  <path
     fill="none"
     stroke-width="1"
     stroke-linecap="butt"
     stroke-linejoin="miter"
     stroke="rgb(0%, 0%, 0%)"
     stroke-opacity="1"
     stroke-miterlimit="4"
     d="M 10.929024 -3.289198 C 6.952665 -1.395825 3.304768 -0.298967 0.000000000000056843 0 C 3.309166 0.299862 6.952066 1.396992 10.9287 3.291392 "
     transform="matrix(-0.478472, -0.577551, 0.577551, -0.478472, 261, 113.25)"
     id="path88" />
  <path
     fill="none"
     stroke-width="1"
     stroke-linecap="butt"
     stroke-linejoin="miter"
     stroke="rgb(0%, 0%, 0%)"
     stroke-opacity="1"
     stroke-miterlimit="4"
     d="M 319 48 L 347.458333 149.067708 "
     transform="matrix(0.75, 0, 0, 0.75, 0, 0)"
     id="path90" />
  <path
     fill="none"
     stroke-width="1"
     stroke-linecap="butt"
     stroke-linejoin="miter"
     stroke="rgb(0%, 0%, 0%)"
     stroke-opacity="1"
     stroke-miterlimit="4"
     d="M 10.930911 -3.291752 C 6.951296 -1.398104 3.308389 -0.29704 0.000000000000056843 -0.000000000000056843 C 3.308585 0.298193 6.948706 1.398504 10.929609 3.287305 "
     transform="matrix(-0.203202, -0.721948, 0.721948, -0.203202, 261, 113.25)"
     id="path92" />
  <path
     fill="none"
     stroke-width="1"
     stroke-linecap="butt"
     stroke-linejoin="miter"
     stroke="rgb(0%, 0%, 0%)"
     stroke-opacity="1"
     stroke-miterlimit="4"
     d="M 398 151 L 435 151 "
     transform="matrix(0.75, 0, 0, 0.75, 0, 0)"
     id="path94" />
  <path
     fill="none"
     stroke-width="1"
     stroke-linecap="butt"
     stroke-linejoin="miter"
     stroke="rgb(0%, 0%, 0%)"
     stroke-opacity="1"
     stroke-miterlimit="4"
     d="M 10.932292 -3.291667 C 6.947917 -1.395833 3.307292 -0.302083 0.000000000000113687 0.000000000000028422 C 3.307292 0.302083 6.947917 1.395833 10.932292 3.291667 "
     transform="matrix(-0.75, 0, 0, -0.75, 327.75, 113.25)"
     id="path96" />
  <path
     fill-rule="nonzero"
     fill="rgb(0%, 0%, 0%)"
     fill-opacity="1"
     d="M 67.664062 119.589844 C 67.941406 119.738281 68.234375 119.8125 68.453125 119.8125 C 69.0625 119.8125 69.777344 119.28125 70.347656 118.417969 L 71.742188 116.269531 L 71.941406 117.535156 C 72.183594 119.097656 72.605469 119.8125 73.265625 119.8125 C 73.667969 119.8125 74.257812 119.5 74.84375 118.96875 L 75.742188 118.160156 L 75.578125 117.8125 C 74.917969 118.363281 74.457031 118.636719 74.164062 118.636719 C 73.890625 118.636719 73.652344 118.453125 73.46875 118.085938 C 73.300781 117.738281 73.101562 117.058594 73.007812 116.527344 L 72.675781 114.671875 L 73.320312 113.773438 C 74.183594 112.578125 74.679688 112.15625 75.246094 112.15625 C 75.542969 112.15625 75.761719 112.300781 75.855469 112.578125 L 76.109375 112.503906 L 76.386719 110.945312 C 76.164062 110.816406 76 110.761719 75.835938 110.761719 C 75.101562 110.761719 74.367188 111.421875 73.226562 113.109375 L 72.550781 114.121094 L 72.4375 113.238281 C 72.21875 111.421875 71.722656 110.761719 70.640625 110.761719 C 70.164062 110.761719 69.757812 110.90625 69.59375 111.144531 L 68.527344 112.667969 L 68.839844 112.855469 C 69.390625 112.230469 69.757812 111.972656 70.105469 111.972656 C 70.714844 111.972656 71.117188 112.726562 71.429688 114.523438 L 71.632812 115.664062 L 70.898438 116.800781 C 70.105469 118.03125 69.484375 118.617188 68.96875 118.617188 C 68.695312 118.617188 68.492188 118.546875 68.453125 118.453125 L 68.253906 117.9375 L 67.886719 117.996094 C 67.886719 118.636719 67.738281 119.113281 67.664062 119.589844 Z M 67.664062 119.589844 "
     id="path98" />
  <path
     fill-rule="nonzero"
     fill="rgb(0%, 0%, 0%)"
     fill-opacity="1"
     d="M 339.335938 110.835938 L 339.039062 110.835938 L 339.425781 108.78125 C 339.71875 107.203125 340.234375 106.503906 341.078125 106.503906 C 341.628906 106.503906 342.125 106.777344 342.398438 107.21875 L 342.582031 107.144531 C 342.675781 106.851562 342.859375 106.285156 343.007812 105.917969 L 343.097656 105.640625 C 342.804688 105.511719 342.234375 105.402344 341.8125 105.402344 C 341.609375 105.402344 341.316406 105.457031 341.171875 105.53125 C 340.730469 105.734375 339.222656 106.851562 338.800781 107.292969 C 338.398438 107.695312 338.175781 108.246094 337.976562 109.292969 L 337.699219 110.746094 C 336.949219 111.113281 336.582031 111.257812 336.121094 111.425781 L 336.03125 111.828125 L 337.515625 111.828125 L 337.351562 112.855469 C 336.800781 116.4375 336.121094 119.851562 335.71875 121.117188 C 335.386719 122.203125 334.835938 122.769531 334.175781 122.769531 C 333.753906 122.769531 333.550781 122.640625 333.21875 122.238281 L 332.964844 122.3125 C 332.890625 122.734375 332.632812 123.617188 332.539062 123.78125 C 332.707031 123.871094 332.980469 123.925781 333.183594 123.925781 C 333.9375 123.925781 334.929688 123.359375 335.644531 122.496094 C 336.949219 120.953125 337.316406 119.191406 338.855469 111.828125 L 340.765625 111.828125 C 340.839844 111.480469 340.96875 111.058594 341.078125 110.800781 L 341.003906 110.671875 C 340.472656 110.800781 340.492188 110.835938 339.335938 110.835938 Z M 339.335938 110.835938 "
     id="path100" />
  <path
     fill-rule="nonzero"
     fill="rgb(0%, 0%, 0%)"
     fill-opacity="1"
     d="M 345.78125 113.976562 C 345.78125 109.203125 347.5625 107.257812 348.628906 106.007812 L 348.277344 105.53125 C 347.234375 106.46875 344.203125 108.910156 344.203125 113.976562 C 344.203125 115.941406 344.664062 117.796875 345.542969 119.449219 C 346.1875 120.675781 346.773438 121.394531 348.277344 122.808594 L 348.628906 122.421875 C 347.785156 121.375 345.78125 119.136719 345.78125 113.976562 Z M 345.78125 113.976562 "
     id="path102" />
  <path
     fill-rule="nonzero"
     fill="rgb(0%, 0%, 0%)"
     fill-opacity="1"
     d="M 349.371094 118.839844 C 349.648438 118.988281 349.941406 119.0625 350.160156 119.0625 C 350.769531 119.0625 351.484375 118.53125 352.054688 117.667969 L 353.449219 115.519531 L 353.648438 116.785156 C 353.890625 118.347656 354.3125 119.0625 354.972656 119.0625 C 355.375 119.0625 355.964844 118.75 356.550781 118.21875 L 357.449219 117.410156 L 357.285156 117.0625 C 356.625 117.613281 356.164062 117.886719 355.871094 117.886719 C 355.597656 117.886719 355.359375 117.703125 355.175781 117.335938 C 355.007812 116.988281 354.808594 116.308594 354.714844 115.777344 L 354.382812 113.921875 L 355.027344 113.023438 C 355.890625 111.828125 356.386719 111.40625 356.953125 111.40625 C 357.25 111.40625 357.46875 111.550781 357.5625 111.828125 L 357.816406 111.753906 L 358.09375 110.195312 C 357.871094 110.066406 357.707031 110.011719 357.542969 110.011719 C 356.808594 110.011719 356.074219 110.671875 354.933594 112.359375 L 354.257812 113.371094 L 354.144531 112.488281 C 353.925781 110.671875 353.429688 110.011719 352.347656 110.011719 C 351.871094 110.011719 351.464844 110.15625 351.300781 110.394531 L 350.234375 111.917969 L 350.546875 112.105469 C 351.097656 111.480469 351.464844 111.222656 351.8125 111.222656 C 352.421875 111.222656 352.824219 111.976562 353.136719 113.773438 L 353.339844 114.914062 L 352.605469 116.050781 C 351.8125 117.28125 351.191406 117.867188 350.675781 117.867188 C 350.402344 117.867188 350.199219 117.796875 350.160156 117.703125 L 349.960938 117.1875 L 349.59375 117.246094 C 349.59375 117.886719 349.445312 118.363281 349.371094 118.839844 Z M 349.371094 118.839844 "
     id="path104" />
  <path
     fill-rule="nonzero"
     fill="rgb(0%, 0%, 0%)"
     fill-opacity="1"
     d="M 359.308594 105.53125 L 358.957031 106.007812 C 359.96875 107.183594 361.804688 109.203125 361.804688 113.976562 C 361.804688 119.042969 359.894531 121.265625 358.957031 122.421875 L 359.308594 122.808594 C 360.28125 121.890625 363.382812 119.28125 363.382812 113.996094 C 363.382812 108.910156 360.355469 106.46875 359.308594 105.53125 Z M 359.308594 105.53125 "
     id="path106" />
  <path
     fill-rule="nonzero"
     fill="rgb(0%, 0%, 0%)"
     fill-opacity="1"
     d="M 284.722656 178.929688 C 284.722656 179.84375 285.8125 180.125 286.523438 180.125 C 287.265625 180.125 287.78125 179.671875 287.996094 179.144531 C 288.042969 179.59375 288.34375 180.066406 288.875 180.066406 C 289.109375 180.066406 289.796875 179.910156 289.796875 179 L 289.796875 178.367188 L 289.515625 178.367188 L 289.515625 179 C 289.515625 179.652344 289.234375 179.71875 289.109375 179.71875 C 288.738281 179.71875 288.695312 179.210938 288.695312 179.15625 L 288.695312 176.90625 C 288.695312 176.433594 288.695312 175.996094 288.289062 175.578125 C 287.851562 175.140625 287.289062 174.960938 286.746094 174.960938 C 285.824219 174.960938 285.046875 175.488281 285.046875 176.230469 C 285.046875 176.570312 285.273438 176.761719 285.566406 176.761719 C 285.882812 176.761719 286.082031 176.535156 286.082031 176.242188 C 286.082031 176.109375 286.027344 175.734375 285.511719 175.726562 C 285.8125 175.332031 286.363281 175.207031 286.726562 175.207031 C 287.277344 175.207031 287.917969 175.644531 287.917969 176.648438 L 287.917969 177.0625 C 287.34375 177.097656 286.554688 177.132812 285.847656 177.46875 C 285.003906 177.851562 284.722656 178.4375 284.722656 178.929688 Z M 285.589844 178.921875 C 285.589844 178.300781 286.0625 177.367188 287.917969 177.300781 L 287.917969 178.425781 C 287.917969 179.492188 287.109375 179.875 286.601562 179.875 C 286.050781 179.875 285.589844 179.484375 285.589844 178.921875 Z M 293.980469 180 C 294.375 179.988281 294.949219 179.964844 295.253906 179.964844 C 295.546875 179.964844 296.128906 179.988281 296.511719 180 L 296.511719 179.652344 C 295.757812 179.652344 295.636719 179.652344 295.636719 179.144531 L 295.636719 177.074219 C 295.636719 175.90625 296.433594 175.273438 297.152344 175.273438 C 297.863281 175.273438 297.984375 175.882812 297.984375 176.523438 L 297.984375 179.144531 C 297.984375 179.652344 297.863281 179.652344 297.109375 179.652344 L 297.109375 180 C 297.503906 179.988281 298.078125 179.964844 298.378906 179.964844 C 298.671875 179.964844 299.257812 179.988281 299.640625 180 L 299.640625 179.652344 C 298.886719 179.652344 298.761719 179.652344 298.761719 179.144531 L 298.761719 177.074219 C 298.761719 175.90625 299.5625 175.273438 300.28125 175.273438 C 300.988281 175.273438 301.113281 175.882812 301.113281 176.523438 L 301.113281 179.144531 C 301.113281 179.652344 300.988281 179.652344 300.234375 179.652344 L 300.234375 180 C 300.628906 179.988281 301.203125 179.964844 301.507812 179.964844 C 301.800781 179.964844 302.386719 179.988281 302.765625 180 L 302.765625 179.652344 C 302.183594 179.652344 301.902344 179.652344 301.890625 179.3125 L 301.890625 177.164062 C 301.890625 176.199219 301.890625 175.847656 301.542969 175.445312 C 301.382812 175.253906 301.011719 175.027344 300.359375 175.027344 C 299.414062 175.027344 298.921875 175.703125 298.730469 176.128906 C 298.570312 175.152344 297.738281 175.027344 297.234375 175.027344 C 296.410156 175.027344 295.882812 175.511719 295.566406 176.207031 L 295.566406 175.027344 L 293.980469 175.152344 L 293.980469 175.5 C 294.769531 175.5 294.859375 175.578125 294.859375 176.128906 L 294.859375 179.144531 C 294.859375 179.652344 294.734375 179.652344 293.980469 179.652344 Z M 303.039062 175.5 C 303.914062 175.5 303.914062 175.535156 303.914062 176.535156 L 303.914062 178.222656 C 303.914062 179.101562 303.914062 180.125 305.625 180.125 C 306.253906 180.125 306.75 179.808594 307.078125 179.109375 L 307.078125 180.125 L 308.695312 180 L 308.695312 179.652344 C 307.910156 179.652344 307.820312 179.574219 307.820312 179.019531 L 307.820312 175.027344 L 306.164062 175.152344 L 306.164062 175.5 C 306.953125 175.5 307.042969 175.578125 307.042969 176.128906 L 307.042969 178.132812 C 307.042969 179.109375 306.503906 179.875 305.679688 179.875 C 304.734375 179.875 304.691406 179.347656 304.691406 178.761719 L 304.691406 175.027344 L 303.039062 175.152344 Z M 309.292969 180 C 309.664062 179.988281 310.261719 179.964844 310.542969 179.964844 C 310.824219 179.964844 311.375 179.988281 311.789062 180 L 311.789062 179.652344 C 311.035156 179.652344 310.914062 179.652344 310.914062 179.144531 L 310.914062 172.191406 L 309.292969 172.316406 L 309.292969 172.664062 C 310.078125 172.664062 310.171875 172.742188 310.171875 173.296875 L 310.171875 179.144531 C 310.171875 179.652344 310.046875 179.652344 309.292969 179.652344 Z M 312.25 175.5 L 313.207031 175.5 L 313.207031 178.605469 C 313.207031 179.988281 314.253906 180.125 314.660156 180.125 C 315.457031 180.125 315.773438 179.324219 315.773438 178.605469 L 315.773438 177.964844 L 315.492188 177.964844 L 315.492188 178.582031 C 315.492188 179.414062 315.152344 179.84375 314.738281 179.84375 C 313.984375 179.84375 313.984375 178.820312 313.984375 178.628906 L 313.984375 175.5 L 315.59375 175.5 L 315.59375 175.152344 L 313.984375 175.152344 L 313.984375 173.082031 L 313.703125 173.082031 C 313.691406 174.003906 313.355469 175.207031 312.25 175.253906 Z M 317.246094 173.070312 C 317.246094 173.375 317.492188 173.667969 317.84375 173.667969 C 318.15625 173.667969 318.4375 173.429688 318.4375 173.070312 C 318.4375 172.710938 318.15625 172.472656 317.84375 172.472656 C 317.492188 172.472656 317.246094 172.777344 317.246094 173.070312 Z M 316.773438 180 C 317.132812 179.988281 317.742188 179.964844 318.011719 179.964844 C 318.40625 179.964844 318.796875 179.988281 319.179688 180 L 319.179688 179.652344 C 318.4375 179.652344 318.394531 179.59375 318.394531 179.15625 L 318.394531 175.027344 L 316.820312 175.152344 L 316.820312 175.5 C 317.550781 175.5 317.652344 175.566406 317.652344 176.117188 L 317.652344 179.144531 C 317.652344 179.652344 317.527344 179.652344 316.773438 179.652344 Z M 319.632812 177.90625 L 322.625 177.90625 L 322.625 177.242188 L 319.632812 177.242188 Z M 323.636719 180 C 324.007812 179.988281 324.605469 179.964844 324.886719 179.964844 C 325.167969 179.964844 325.71875 179.988281 326.132812 180 L 326.132812 179.652344 C 325.378906 179.652344 325.257812 179.652344 325.257812 179.144531 L 325.257812 172.191406 L 323.636719 172.316406 L 323.636719 172.664062 C 324.421875 172.664062 324.515625 172.742188 324.515625 173.296875 L 324.515625 179.144531 C 324.515625 179.652344 324.390625 179.652344 323.636719 179.652344 Z M 326.855469 178.929688 C 326.855469 179.84375 327.945312 180.125 328.652344 180.125 C 329.394531 180.125 329.914062 179.671875 330.128906 179.144531 C 330.171875 179.59375 330.476562 180.066406 331.003906 180.066406 C 331.242188 180.066406 331.925781 179.910156 331.925781 179 L 331.925781 178.367188 L 331.644531 178.367188 L 331.644531 179 C 331.644531 179.652344 331.363281 179.71875 331.242188 179.71875 C 330.871094 179.71875 330.824219 179.210938 330.824219 179.15625 L 330.824219 176.90625 C 330.824219 176.433594 330.824219 175.996094 330.421875 175.578125 C 329.980469 175.140625 329.417969 174.960938 328.878906 174.960938 C 327.957031 174.960938 327.179688 175.488281 327.179688 176.230469 C 327.179688 176.570312 327.40625 176.761719 327.699219 176.761719 C 328.011719 176.761719 328.214844 176.535156 328.214844 176.242188 C 328.214844 176.109375 328.160156 175.734375 327.640625 175.726562 C 327.945312 175.332031 328.496094 175.207031 328.855469 175.207031 C 329.40625 175.207031 330.046875 175.644531 330.046875 176.648438 L 330.046875 177.0625 C 329.476562 177.097656 328.6875 177.132812 327.980469 177.46875 C 327.136719 177.851562 326.855469 178.4375 326.855469 178.929688 Z M 327.71875 178.921875 C 327.71875 178.300781 328.191406 177.367188 330.046875 177.300781 L 330.046875 178.425781 C 330.046875 179.492188 329.238281 179.875 328.734375 179.875 C 328.179688 179.875 327.71875 179.484375 327.71875 178.921875 Z M 331.90625 181.394531 C 331.90625 181.902344 332.378906 182.304688 332.941406 182.304688 C 333.648438 182.304688 334.109375 181.664062 334.378906 181.023438 L 336.359375 176.21875 C 336.652344 175.511719 337.226562 175.5 337.40625 175.5 L 337.40625 175.152344 C 337.148438 175.171875 336.820312 175.183594 336.5625 175.183594 C 336.359375 175.183594 335.832031 175.164062 335.582031 175.152344 L 335.582031 175.5 C 335.933594 175.511719 336.113281 175.703125 336.113281 175.984375 C 336.113281 176.097656 336.101562 176.117188 336.046875 176.253906 L 334.910156 179.019531 L 333.660156 175.996094 C 333.613281 175.882812 333.59375 175.835938 333.59375 175.792969 C 333.59375 175.5 334.007812 175.5 334.222656 175.5 L 334.222656 175.152344 C 333.929688 175.164062 333.1875 175.183594 332.996094 175.183594 C 332.691406 175.183594 332.242188 175.171875 331.90625 175.152344 L 331.90625 175.5 C 332.445312 175.5 332.660156 175.5 332.816406 175.894531 L 334.503906 180 C 334.449219 180.144531 334.289062 180.515625 334.222656 180.664062 C 333.976562 181.28125 333.660156 182.058594 332.941406 182.058594 C 332.882812 182.058594 332.625 182.058594 332.410156 181.855469 C 332.761719 181.8125 332.851562 181.5625 332.851562 181.382812 C 332.851562 181.089844 332.636719 180.910156 332.378906 180.910156 C 332.152344 180.910156 331.90625 181.058594 331.90625 181.394531 Z M 337.621094 177.523438 C 337.621094 179.03125 338.800781 180.125 340.09375 180.125 C 341.46875 180.125 341.972656 178.875 341.972656 178.660156 C 341.972656 178.546875 341.882812 178.527344 341.828125 178.527344 C 341.726562 178.527344 341.703125 178.59375 341.679688 178.683594 C 341.289062 179.84375 340.273438 179.84375 340.164062 179.84375 C 339.601562 179.84375 339.148438 179.503906 338.890625 179.089844 C 338.554688 178.546875 338.554688 177.804688 338.554688 177.402344 L 341.691406 177.402344 C 341.941406 177.402344 341.972656 177.402344 341.972656 177.164062 C 341.972656 176.050781 341.367188 174.960938 339.960938 174.960938 C 338.65625 174.960938 337.621094 176.117188 337.621094 177.523438 Z M 338.566406 177.164062 C 338.632812 175.488281 339.578125 175.207031 339.960938 175.207031 C 341.117188 175.207031 341.230469 176.726562 341.230469 177.164062 Z M 342.613281 180 C 343.054688 179.988281 343.582031 179.964844 343.898438 179.964844 C 344.347656 179.964844 344.875 179.964844 345.328125 180 L 345.328125 179.652344 L 345.089844 179.652344 C 344.257812 179.652344 344.234375 179.527344 344.234375 179.121094 L 344.234375 177.390625 C 344.234375 176.277344 344.707031 175.273438 345.5625 175.273438 C 345.640625 175.273438 345.664062 175.273438 345.6875 175.285156 C 345.652344 175.296875 345.425781 175.433594 345.425781 175.726562 C 345.425781 176.039062 345.664062 176.207031 345.910156 176.207031 C 346.113281 176.207031 346.394531 176.074219 346.394531 175.714844 C 346.394531 175.355469 346.046875 175.027344 345.5625 175.027344 C 344.742188 175.027344 344.335938 175.78125 344.179688 176.265625 L 344.179688 175.027344 L 342.613281 175.152344 L 342.613281 175.5 C 343.402344 175.5 343.492188 175.578125 343.492188 176.128906 L 343.492188 179.144531 C 343.492188 179.652344 343.367188 179.652344 342.613281 179.652344 Z M 350.761719 181.832031 L 350.761719 182.183594 C 351.140625 182.171875 351.726562 182.148438 352.019531 182.148438 C 352.324219 182.148438 352.898438 182.171875 353.292969 182.183594 L 353.292969 181.832031 C 352.539062 181.832031 352.414062 181.832031 352.414062 181.328125 L 352.414062 179.335938 C 352.46875 179.515625 352.941406 180.125 353.796875 180.125 C 355.136719 180.125 356.304688 179.019531 356.304688 177.570312 C 356.304688 176.140625 355.214844 175.027344 353.953125 175.027344 C 353.078125 175.027344 352.605469 175.523438 352.378906 175.769531 L 352.378906 175.027344 L 350.761719 175.152344 L 350.761719 175.5 C 351.558594 175.5 351.636719 175.566406 351.636719 176.0625 L 351.636719 181.328125 C 351.636719 181.832031 351.515625 181.832031 350.761719 181.832031 Z M 352.414062 178.71875 L 352.414062 176.207031 C 352.738281 175.636719 353.292969 175.308594 353.863281 175.308594 C 354.6875 175.308594 355.371094 176.296875 355.371094 177.570312 C 355.371094 178.929688 354.585938 179.875 353.753906 179.875 C 353.300781 179.875 352.875 179.652344 352.570312 179.191406 C 352.414062 178.953125 352.414062 178.941406 352.414062 178.71875 Z M 357.320312 177.523438 C 357.320312 179.03125 358.5 180.125 359.792969 180.125 C 361.167969 180.125 361.671875 178.875 361.671875 178.660156 C 361.671875 178.546875 361.582031 178.527344 361.527344 178.527344 C 361.425781 178.527344 361.402344 178.59375 361.378906 178.683594 C 360.984375 179.84375 359.972656 179.84375 359.859375 179.84375 C 359.296875 179.84375 358.847656 179.503906 358.589844 179.089844 C 358.253906 178.546875 358.253906 177.804688 358.253906 177.402344 L 361.390625 177.402344 C 361.640625 177.402344 361.671875 177.402344 361.671875 177.164062 C 361.671875 176.050781 361.066406 174.960938 359.660156 174.960938 C 358.355469 174.960938 357.320312 176.117188 357.320312 177.523438 Z M 358.265625 177.164062 C 358.332031 175.488281 359.277344 175.207031 359.660156 175.207031 C 360.816406 175.207031 360.929688 176.726562 360.929688 177.164062 Z M 362.3125 180 C 362.753906 179.988281 363.28125 179.964844 363.597656 179.964844 C 364.046875 179.964844 364.574219 179.964844 365.023438 180 L 365.023438 179.652344 L 364.789062 179.652344 C 363.957031 179.652344 363.933594 179.527344 363.933594 179.121094 L 363.933594 177.390625 C 363.933594 176.277344 364.40625 175.273438 365.261719 175.273438 C 365.339844 175.273438 365.363281 175.273438 365.386719 175.285156 C 365.351562 175.296875 365.125 175.433594 365.125 175.726562 C 365.125 176.039062 365.363281 176.207031 365.609375 176.207031 C 365.8125 176.207031 366.09375 176.074219 366.09375 175.714844 C 366.09375 175.355469 365.746094 175.027344 365.261719 175.027344 C 364.441406 175.027344 364.035156 175.78125 363.878906 176.265625 L 363.878906 175.027344 L 362.3125 175.152344 L 362.3125 175.5 C 363.101562 175.5 363.191406 175.578125 363.191406 176.128906 L 363.191406 179.144531 C 363.191406 179.652344 363.066406 179.652344 362.3125 179.652344 Z M 366.78125 177.570312 C 366.78125 179.011719 367.894531 180.125 369.199219 180.125 C 370.707031 180.125 371.066406 178.773438 371.066406 178.660156 C 371.066406 178.546875 370.953125 178.546875 370.921875 178.546875 C 370.820312 178.546875 370.796875 178.59375 370.773438 178.660156 C 370.449219 179.707031 369.714844 179.84375 369.300781 179.84375 C 368.703125 179.84375 367.714844 179.359375 367.714844 177.546875 C 367.714844 175.714844 368.636719 175.242188 369.234375 175.242188 C 369.332031 175.242188 370.042969 175.253906 370.4375 175.65625 C 369.976562 175.691406 369.90625 176.027344 369.90625 176.175781 C 369.90625 176.46875 370.109375 176.691406 370.425781 176.691406 C 370.71875 176.691406 370.941406 176.5 370.941406 176.164062 C 370.941406 175.398438 370.085938 174.960938 369.222656 174.960938 C 367.816406 174.960938 366.78125 176.175781 366.78125 177.570312 Z M 371.707031 177.523438 C 371.707031 179.03125 372.890625 180.125 374.183594 180.125 C 375.554688 180.125 376.0625 178.875 376.0625 178.660156 C 376.0625 178.546875 375.972656 178.527344 375.914062 178.527344 C 375.8125 178.527344 375.792969 178.59375 375.769531 178.683594 C 375.375 179.84375 374.363281 179.84375 374.25 179.84375 C 373.6875 179.84375 373.238281 179.503906 372.980469 179.089844 C 372.640625 178.546875 372.640625 177.804688 372.640625 177.402344 L 375.78125 177.402344 C 376.027344 177.402344 376.0625 177.402344 376.0625 177.164062 C 376.0625 176.050781 375.453125 174.960938 374.046875 174.960938 C 372.742188 174.960938 371.707031 176.117188 371.707031 177.523438 Z M 372.652344 177.164062 C 372.71875 175.488281 373.664062 175.207031 374.046875 175.207031 C 375.207031 175.207031 375.320312 176.726562 375.320312 177.164062 Z M 376.703125 181.832031 L 376.703125 182.183594 C 377.085938 182.171875 377.671875 182.148438 377.960938 182.148438 C 378.265625 182.148438 378.839844 182.171875 379.234375 182.183594 L 379.234375 181.832031 C 378.480469 181.832031 378.355469 181.832031 378.355469 181.328125 L 378.355469 179.335938 C 378.414062 179.515625 378.886719 180.125 379.738281 180.125 C 381.078125 180.125 382.25 179.019531 382.25 177.570312 C 382.25 176.140625 381.15625 175.027344 379.898438 175.027344 C 379.019531 175.027344 378.546875 175.523438 378.324219 175.769531 L 378.324219 175.027344 L 376.703125 175.152344 L 376.703125 175.5 C 377.5 175.5 377.578125 175.566406 377.578125 176.0625 L 377.578125 181.328125 C 377.578125 181.832031 377.457031 181.832031 376.703125 181.832031 Z M 378.355469 178.71875 L 378.355469 176.207031 C 378.683594 175.636719 379.234375 175.308594 379.808594 175.308594 C 380.628906 175.308594 381.316406 176.296875 381.316406 177.570312 C 381.316406 178.929688 380.527344 179.875 379.695312 179.875 C 379.246094 179.875 378.816406 179.652344 378.515625 179.191406 C 378.355469 178.953125 378.355469 178.941406 378.355469 178.71875 Z M 382.84375 175.5 L 383.800781 175.5 L 383.800781 178.605469 C 383.800781 179.988281 384.847656 180.125 385.253906 180.125 C 386.050781 180.125 386.367188 179.324219 386.367188 178.605469 L 386.367188 177.964844 L 386.085938 177.964844 L 386.085938 178.582031 C 386.085938 179.414062 385.746094 179.84375 385.332031 179.84375 C 384.578125 179.84375 384.578125 178.820312 384.578125 178.628906 L 384.578125 175.5 L 386.1875 175.5 L 386.1875 175.152344 L 384.578125 175.152344 L 384.578125 173.082031 L 384.296875 173.082031 C 384.285156 174.003906 383.949219 175.207031 382.84375 175.253906 Z M 387.3125 180 C 387.75 179.988281 388.277344 179.964844 388.59375 179.964844 C 389.042969 179.964844 389.574219 179.964844 390.023438 180 L 390.023438 179.652344 L 389.785156 179.652344 C 388.953125 179.652344 388.929688 179.527344 388.929688 179.121094 L 388.929688 177.390625 C 388.929688 176.277344 389.402344 175.273438 390.257812 175.273438 C 390.335938 175.273438 390.359375 175.273438 390.382812 175.285156 C 390.347656 175.296875 390.125 175.433594 390.125 175.726562 C 390.125 176.039062 390.359375 176.207031 390.609375 176.207031 C 390.808594 176.207031 391.089844 176.074219 391.089844 175.714844 C 391.089844 175.355469 390.742188 175.027344 390.257812 175.027344 C 389.4375 175.027344 389.03125 175.78125 388.875 176.265625 L 388.875 175.027344 L 387.3125 175.152344 L 387.3125 175.5 C 388.097656 175.5 388.1875 175.578125 388.1875 176.128906 L 388.1875 179.144531 C 388.1875 179.652344 388.066406 179.652344 387.3125 179.652344 Z M 391.710938 177.59375 C 391.710938 179.042969 392.878906 180.125 394.195312 180.125 C 395.558594 180.125 396.695312 179.019531 396.695312 177.59375 C 396.695312 176.152344 395.570312 174.960938 394.207031 174.960938 C 392.800781 174.960938 391.710938 176.1875 391.710938 177.59375 Z M 392.644531 177.503906 C 392.644531 177.0625 392.644531 176.457031 392.914062 175.960938 C 393.21875 175.445312 393.746094 175.207031 394.195312 175.207031 C 394.691406 175.207031 395.175781 175.453125 395.46875 175.9375 C 395.761719 176.421875 395.761719 177.074219 395.761719 177.503906 C 395.761719 177.90625 395.761719 178.515625 395.511719 179.011719 C 395.265625 179.515625 394.769531 179.84375 394.207031 179.84375 C 393.722656 179.84375 393.230469 179.605469 392.925781 179.089844 C 392.644531 178.59375 392.644531 177.90625 392.644531 177.503906 Z M 397.378906 180 C 397.773438 179.988281 398.347656 179.964844 398.652344 179.964844 C 398.945312 179.964844 399.527344 179.988281 399.910156 180 L 399.910156 179.652344 C 399.15625 179.652344 399.035156 179.652344 399.035156 179.144531 L 399.035156 177.074219 C 399.035156 175.90625 399.832031 175.273438 400.550781 175.273438 C 401.261719 175.273438 401.386719 175.882812 401.386719 176.523438 L 401.386719 179.144531 C 401.386719 179.652344 401.261719 179.652344 400.507812 179.652344 L 400.507812 180 C 400.902344 179.988281 401.476562 179.964844 401.777344 179.964844 C 402.070312 179.964844 402.65625 179.988281 403.039062 180 L 403.039062 179.652344 C 402.453125 179.652344 402.171875 179.652344 402.160156 179.3125 L 402.160156 177.164062 C 402.160156 176.199219 402.160156 175.847656 401.8125 175.445312 C 401.65625 175.253906 401.285156 175.027344 400.632812 175.027344 C 399.808594 175.027344 399.28125 175.511719 398.964844 176.207031 L 398.964844 175.027344 L 397.378906 175.152344 L 397.378906 175.5 C 398.167969 175.5 398.257812 175.578125 398.257812 176.128906 L 398.257812 179.144531 C 398.257812 179.652344 398.132812 179.652344 397.378906 179.652344 Z M 408.125 177.1875 C 408.125 178.066406 408.246094 179.425781 408.867188 180.699219 C 409.542969 182.082031 410.507812 182.8125 410.621094 182.8125 C 410.6875 182.8125 410.734375 182.777344 410.734375 182.699219 C 410.734375 182.667969 410.734375 182.644531 410.542969 182.453125 C 409.136719 181.035156 408.777344 178.910156 408.777344 177.1875 C 408.777344 175.230469 409.203125 173.273438 410.585938 171.867188 C 410.734375 171.730469 410.734375 171.707031 410.734375 171.675781 C 410.734375 171.597656 410.6875 171.5625 410.621094 171.5625 C 410.507812 171.5625 409.496094 172.328125 408.832031 173.757812 C 408.257812 174.992188 408.125 176.242188 408.125 177.1875 Z M 411.792969 180 C 412.183594 179.988281 412.734375 179.964844 413.109375 179.964844 C 413.480469 179.964844 414.03125 179.988281 414.421875 180 L 414.421875 179.652344 C 413.265625 179.652344 413.265625 179.121094 413.265625 178.820312 L 413.265625 172.753906 L 413.277344 172.753906 L 415.988281 179.753906 C 416.042969 179.898438 416.101562 180 416.210938 180 C 416.335938 180 416.371094 179.910156 416.414062 179.785156 L 419.183594 172.664062 L 419.195312 172.664062 L 419.195312 179.121094 C 419.195312 179.527344 419.171875 179.652344 418.304688 179.652344 L 418.035156 179.652344 L 418.035156 180 C 418.453125 179.964844 419.214844 179.964844 419.65625 179.964844 C 420.09375 179.964844 420.847656 179.964844 421.265625 180 L 421.265625 179.652344 L 420.992188 179.652344 C 420.128906 179.652344 420.105469 179.527344 420.105469 179.121094 L 420.105469 173.195312 C 420.105469 172.789062 420.128906 172.664062 420.992188 172.664062 L 421.265625 172.664062 L 421.265625 172.316406 L 419.363281 172.316406 C 419.070312 172.316406 419.070312 172.328125 418.992188 172.53125 L 416.527344 178.863281 L 414.085938 172.5625 C 413.984375 172.316406 413.953125 172.316406 413.691406 172.316406 L 411.792969 172.316406 L 411.792969 172.664062 L 412.0625 172.664062 C 412.925781 172.664062 412.949219 172.789062 412.949219 173.195312 L 412.949219 178.820312 C 412.949219 179.121094 412.949219 179.652344 411.792969 179.652344 Z M 422.050781 180 L 427.914062 180 L 428.226562 177.097656 L 427.945312 177.097656 C 427.824219 178.246094 427.664062 179.652344 425.683594 179.652344 L 424.761719 179.652344 C 424.234375 179.652344 424.210938 179.574219 424.210938 179.203125 L 424.210938 173.203125 C 424.210938 172.824219 424.210938 172.664062 425.28125 172.664062 L 425.652344 172.664062 L 425.652344 172.316406 C 425.246094 172.351562 424.222656 172.351562 423.761719 172.351562 C 423.324219 172.351562 422.445312 172.351562 422.050781 172.316406 L 422.050781 172.664062 L 422.320312 172.664062 C 423.1875 172.664062 423.210938 172.789062 423.210938 173.195312 L 423.210938 179.121094 C 423.210938 179.527344 423.1875 179.652344 422.320312 179.652344 L 422.050781 179.652344 Z M 429.105469 180 C 429.5 179.964844 430.332031 179.964844 430.757812 179.964844 C 431.1875 179.964844 432.03125 179.964844 432.421875 180 L 432.421875 179.652344 L 432.152344 179.652344 C 431.289062 179.652344 431.265625 179.527344 431.265625 179.121094 L 431.265625 176.445312 L 433.167969 176.445312 C 434.515625 176.445312 435.730469 175.535156 435.730469 174.410156 C 435.730469 173.304688 434.617188 172.316406 433.078125 172.316406 L 429.105469 172.316406 L 429.105469 172.664062 L 429.375 172.664062 C 430.242188 172.664062 430.265625 172.789062 430.265625 173.195312 L 430.265625 179.121094 C 430.265625 179.527344 430.242188 179.652344 429.375 179.652344 L 429.105469 179.652344 Z M 431.230469 176.152344 L 431.230469 173.113281 C 431.230469 172.742188 431.253906 172.664062 431.78125 172.664062 L 432.785156 172.664062 C 434.574219 172.664062 434.574219 173.859375 434.574219 174.410156 C 434.574219 174.9375 434.574219 176.152344 432.785156 176.152344 Z M 437.003906 182.699219 C 437.003906 182.765625 437.046875 182.8125 437.113281 182.8125 C 437.226562 182.8125 438.238281 182.046875 438.902344 180.617188 C 439.476562 179.382812 439.613281 178.132812 439.613281 177.1875 C 439.613281 176.308594 439.488281 174.949219 438.871094 173.675781 C 438.195312 172.292969 437.226562 171.5625 437.113281 171.5625 C 437.046875 171.5625 437.003906 171.609375 437.003906 171.675781 C 437.003906 171.707031 437.003906 171.730469 437.214844 171.933594 C 438.320312 173.046875 438.960938 174.835938 438.960938 177.1875 C 438.960938 179.109375 438.542969 181.089844 437.148438 182.507812 C 437.003906 182.644531 437.003906 182.667969 437.003906 182.699219 Z M 441.695312 179.402344 C 441.695312 179.695312 441.886719 180 442.289062 180 C 442.46875 180 442.605469 179.933594 442.71875 179.84375 L 442.738281 179.820312 C 442.75 179.820312 442.761719 179.832031 442.761719 179.988281 C 442.761719 180.707031 442.449219 181.394531 441.953125 181.921875 C 441.886719 181.992188 441.875 182.003906 441.875 182.046875 C 441.875 182.125 441.929688 182.171875 441.984375 182.171875 C 442.121094 182.171875 443.011719 181.28125 443.011719 179.988281 C 443.011719 179.269531 442.738281 178.808594 442.289062 178.808594 C 441.894531 178.808594 441.695312 179.109375 441.695312 179.402344 Z M 441.695312 179.402344 "
     id="path108" />
  <path
     fill-rule="nonzero"
     fill="rgb(0%, 0%, 0%)"
     fill-opacity="1"
     d="M 285.09375 188.820312 C 285.09375 189.125 285.339844 189.417969 285.691406 189.417969 C 286.003906 189.417969 286.285156 189.179688 286.285156 188.820312 C 286.285156 188.460938 286.003906 188.222656 285.691406 188.222656 C 285.339844 188.222656 285.09375 188.527344 285.09375 188.820312 Z M 284.621094 195.75 C 284.980469 195.738281 285.589844 195.714844 285.859375 195.714844 C 286.253906 195.714844 286.644531 195.738281 287.027344 195.75 L 287.027344 195.402344 C 286.285156 195.402344 286.242188 195.34375 286.242188 194.90625 L 286.242188 190.777344 L 284.667969 190.902344 L 284.667969 191.25 C 285.398438 191.25 285.5 191.316406 285.5 191.867188 L 285.5 194.894531 C 285.5 195.402344 285.375 195.402344 284.621094 195.402344 Z M 287.726562 195.75 C 288.121094 195.738281 288.695312 195.714844 288.996094 195.714844 C 289.289062 195.714844 289.875 195.738281 290.257812 195.75 L 290.257812 195.402344 C 289.503906 195.402344 289.378906 195.402344 289.378906 194.894531 L 289.378906 192.824219 C 289.378906 191.65625 290.179688 191.023438 290.898438 191.023438 C 291.609375 191.023438 291.730469 191.632812 291.730469 192.273438 L 291.730469 194.894531 C 291.730469 195.402344 291.609375 195.402344 290.855469 195.402344 L 290.855469 195.75 C 291.246094 195.738281 291.820312 195.714844 292.125 195.714844 C 292.417969 195.714844 293.003906 195.738281 293.386719 195.75 L 293.386719 195.402344 C 292.800781 195.402344 292.519531 195.402344 292.507812 195.0625 L 292.507812 192.914062 C 292.507812 191.949219 292.507812 191.597656 292.160156 191.195312 C 292 191.003906 291.628906 190.777344 290.976562 190.777344 C 290.15625 190.777344 289.628906 191.261719 289.3125 191.957031 L 289.3125 190.777344 L 287.726562 190.902344 L 287.726562 191.25 C 288.515625 191.25 288.605469 191.328125 288.605469 191.878906 L 288.605469 194.894531 C 288.605469 195.402344 288.480469 195.402344 287.726562 195.402344 Z M 297.570312 191.25 L 298.527344 191.25 L 298.527344 194.355469 C 298.527344 195.738281 299.574219 195.875 299.976562 195.875 C 300.777344 195.875 301.089844 195.074219 301.089844 194.355469 L 301.089844 193.714844 L 300.808594 193.714844 L 300.808594 194.332031 C 300.808594 195.164062 300.472656 195.59375 300.054688 195.59375 C 299.300781 195.59375 299.300781 194.570312 299.300781 194.378906 L 299.300781 191.25 L 300.910156 191.25 L 300.910156 190.902344 L 299.300781 190.902344 L 299.300781 188.832031 L 299.019531 188.832031 C 299.011719 189.753906 298.671875 190.957031 297.570312 191.003906 Z M 302.082031 195.75 C 302.476562 195.738281 303.046875 195.714844 303.351562 195.714844 C 303.644531 195.714844 304.230469 195.738281 304.613281 195.75 L 304.613281 195.402344 C 303.859375 195.402344 303.734375 195.402344 303.734375 194.894531 L 303.734375 192.824219 C 303.734375 191.65625 304.535156 191.023438 305.253906 191.023438 C 305.960938 191.023438 306.085938 191.632812 306.085938 192.273438 L 306.085938 194.894531 C 306.085938 195.402344 305.960938 195.402344 305.207031 195.402344 L 305.207031 195.75 C 305.601562 195.738281 306.175781 195.714844 306.480469 195.714844 C 306.773438 195.714844 307.359375 195.738281 307.738281 195.75 L 307.738281 195.402344 C 307.15625 195.402344 306.875 195.402344 306.863281 195.0625 L 306.863281 192.914062 C 306.863281 191.949219 306.863281 191.597656 306.515625 191.195312 C 306.355469 191.003906 305.984375 190.777344 305.332031 190.777344 C 304.386719 190.777344 303.890625 191.453125 303.710938 191.859375 L 303.703125 191.859375 L 303.703125 187.941406 L 302.082031 188.066406 L 302.082031 188.414062 C 302.867188 188.414062 302.957031 188.492188 302.957031 189.046875 L 302.957031 194.894531 C 302.957031 195.402344 302.835938 195.402344 302.082031 195.402344 Z M 308.28125 193.273438 C 308.28125 194.78125 309.460938 195.875 310.753906 195.875 C 312.128906 195.875 312.632812 194.625 312.632812 194.410156 C 312.632812 194.296875 312.542969 194.277344 312.488281 194.277344 C 312.386719 194.277344 312.363281 194.34375 312.339844 194.433594 C 311.949219 195.59375 310.933594 195.59375 310.824219 195.59375 C 310.261719 195.59375 309.808594 195.253906 309.550781 194.839844 C 309.214844 194.296875 309.214844 193.554688 309.214844 193.152344 L 312.351562 193.152344 C 312.601562 193.152344 312.632812 193.152344 312.632812 192.914062 C 312.632812 191.800781 312.027344 190.710938 310.621094 190.710938 C 309.316406 190.710938 308.28125 191.867188 308.28125 193.273438 Z M 309.226562 192.914062 C 309.292969 191.238281 310.238281 190.957031 310.621094 190.957031 C 311.777344 190.957031 311.890625 192.476562 311.890625 192.914062 Z M 318.046875 188.28125 C 318.046875 188.402344 318.359375 191.015625 318.4375 191.847656 L 318.699219 191.847656 C 318.707031 191.722656 319.089844 188.414062 319.089844 188.28125 C 319.089844 187.863281 318.742188 187.761719 318.5625 187.761719 C 318.382812 187.761719 318.046875 187.863281 318.046875 188.28125 Z M 319.933594 188.292969 C 319.933594 188.449219 320.304688 191.6875 320.328125 191.847656 L 320.578125 191.847656 C 320.65625 191.003906 320.96875 188.402344 320.96875 188.28125 C 320.96875 187.863281 320.632812 187.761719 320.453125 187.761719 C 320.183594 187.761719 319.933594 187.929688 319.933594 188.292969 Z M 322.644531 188.414062 C 323.433594 188.414062 323.523438 188.492188 323.523438 189.046875 L 323.523438 195.75 L 323.804688 195.75 C 323.816406 195.738281 323.90625 195.582031 324.210938 195.050781 C 324.378906 195.3125 324.851562 195.875 325.683594 195.875 C 327.023438 195.875 328.191406 194.769531 328.191406 193.320312 C 328.191406 191.890625 327.089844 190.777344 325.808594 190.777344 C 324.929688 190.777344 324.445312 191.304688 324.265625 191.507812 L 324.265625 187.941406 L 322.644531 188.066406 Z M 324.300781 194.46875 L 324.300781 192.148438 C 324.300781 191.9375 324.300781 191.925781 324.421875 191.746094 C 324.863281 191.113281 325.480469 191.023438 325.75 191.023438 C 326.257812 191.023438 326.664062 191.316406 326.933594 191.746094 C 327.226562 192.207031 327.257812 192.847656 327.257812 193.308594 C 327.257812 193.726562 327.234375 194.398438 326.910156 194.90625 C 326.671875 195.253906 326.246094 195.625 325.640625 195.625 C 325.132812 195.625 324.726562 195.355469 324.457031 194.941406 C 324.300781 194.703125 324.300781 194.671875 324.300781 194.46875 Z M 329.046875 194.679688 C 329.046875 195.59375 330.140625 195.875 330.847656 195.875 C 331.589844 195.875 332.109375 195.421875 332.320312 194.894531 C 332.367188 195.34375 332.671875 195.816406 333.199219 195.816406 C 333.433594 195.816406 334.121094 195.660156 334.121094 194.75 L 334.121094 194.117188 L 333.839844 194.117188 L 333.839844 194.75 C 333.839844 195.402344 333.558594 195.46875 333.433594 195.46875 C 333.0625 195.46875 333.019531 194.960938 333.019531 194.90625 L 333.019531 192.65625 C 333.019531 192.183594 333.019531 191.746094 332.613281 191.328125 C 332.175781 190.890625 331.613281 190.710938 331.074219 190.710938 C 330.148438 190.710938 329.375 191.238281 329.375 191.980469 C 329.375 192.320312 329.597656 192.511719 329.890625 192.511719 C 330.207031 192.511719 330.410156 192.285156 330.410156 191.992188 C 330.410156 191.859375 330.351562 191.484375 329.835938 191.476562 C 330.140625 191.082031 330.691406 190.957031 331.050781 190.957031 C 331.601562 190.957031 332.242188 191.394531 332.242188 192.398438 L 332.242188 192.8125 C 331.667969 192.847656 330.882812 192.882812 330.171875 193.21875 C 329.328125 193.601562 329.046875 194.1875 329.046875 194.679688 Z M 329.914062 194.671875 C 329.914062 194.050781 330.386719 193.117188 332.242188 193.050781 L 332.242188 194.175781 C 332.242188 195.242188 331.433594 195.625 330.925781 195.625 C 330.375 195.625 329.914062 195.234375 329.914062 194.671875 Z M 334.570312 195.75 C 334.941406 195.738281 335.539062 195.714844 335.820312 195.714844 C 336.101562 195.714844 336.652344 195.738281 337.070312 195.75 L 337.070312 195.402344 C 336.316406 195.402344 336.191406 195.402344 336.191406 194.894531 L 336.191406 187.941406 L 334.570312 188.066406 L 334.570312 188.414062 C 335.359375 188.414062 335.449219 188.492188 335.449219 189.046875 L 335.449219 194.894531 C 335.449219 195.402344 335.324219 195.402344 334.570312 195.402344 Z M 337.6875 195.75 C 338.058594 195.738281 338.65625 195.714844 338.9375 195.714844 C 339.21875 195.714844 339.769531 195.738281 340.183594 195.75 L 340.183594 195.402344 C 339.429688 195.402344 339.308594 195.402344 339.308594 194.894531 L 339.308594 187.941406 L 337.6875 188.066406 L 337.6875 188.414062 C 338.476562 188.414062 338.566406 188.492188 338.566406 189.046875 L 338.566406 194.894531 C 338.566406 195.402344 338.441406 195.402344 337.6875 195.402344 Z M 340.546875 193.65625 L 343.539062 193.65625 L 343.539062 192.992188 L 340.546875 192.992188 Z M 344.652344 194.679688 C 344.652344 195.59375 345.742188 195.875 346.453125 195.875 C 347.195312 195.875 347.710938 195.421875 347.925781 194.894531 C 347.96875 195.34375 348.273438 195.816406 348.800781 195.816406 C 349.039062 195.816406 349.726562 195.660156 349.726562 194.75 L 349.726562 194.117188 L 349.445312 194.117188 L 349.445312 194.75 C 349.445312 195.402344 349.164062 195.46875 349.039062 195.46875 C 348.667969 195.46875 348.621094 194.960938 348.621094 194.90625 L 348.621094 192.65625 C 348.621094 192.183594 348.621094 191.746094 348.21875 191.328125 C 347.777344 190.890625 347.214844 190.710938 346.675781 190.710938 C 345.753906 190.710938 344.976562 191.238281 344.976562 191.980469 C 344.976562 192.320312 345.203125 192.511719 345.496094 192.511719 C 345.808594 192.511719 346.011719 192.285156 346.011719 191.992188 C 346.011719 191.859375 345.957031 191.484375 345.4375 191.476562 C 345.742188 191.082031 346.292969 190.957031 346.652344 190.957031 C 347.203125 190.957031 347.847656 191.394531 347.847656 192.398438 L 347.847656 192.8125 C 347.273438 192.847656 346.484375 192.882812 345.777344 193.21875 C 344.933594 193.601562 344.652344 194.1875 344.652344 194.679688 Z M 345.515625 194.671875 C 345.515625 194.050781 345.988281 193.117188 347.847656 193.050781 L 347.847656 194.175781 C 347.847656 195.242188 347.035156 195.625 346.53125 195.625 C 345.980469 195.625 345.515625 195.234375 345.515625 194.671875 Z M 350.164062 195.75 C 350.558594 195.738281 351.132812 195.714844 351.433594 195.714844 C 351.726562 195.714844 352.3125 195.738281 352.695312 195.75 L 352.695312 195.402344 C 351.941406 195.402344 351.816406 195.402344 351.816406 194.894531 L 351.816406 192.824219 C 351.816406 191.65625 352.617188 191.023438 353.335938 191.023438 C 354.046875 191.023438 354.167969 191.632812 354.167969 192.273438 L 354.167969 194.894531 C 354.167969 195.402344 354.046875 195.402344 353.292969 195.402344 L 353.292969 195.75 C 353.683594 195.738281 354.257812 195.714844 354.5625 195.714844 C 354.855469 195.714844 355.441406 195.738281 355.824219 195.75 L 355.824219 195.402344 C 355.238281 195.402344 354.957031 195.402344 354.945312 195.0625 L 354.945312 192.914062 C 354.945312 191.949219 354.945312 191.597656 354.597656 191.195312 C 354.4375 191.003906 354.066406 190.777344 353.414062 190.777344 C 352.59375 190.777344 352.066406 191.261719 351.75 191.957031 L 351.75 190.777344 L 350.164062 190.902344 L 350.164062 191.25 C 350.953125 191.25 351.042969 191.328125 351.042969 191.878906 L 351.042969 194.894531 C 351.042969 195.402344 350.917969 195.402344 350.164062 195.402344 Z M 356.429688 193.332031 C 356.429688 194.761719 357.53125 195.875 358.816406 195.875 C 359.535156 195.875 360.042969 195.492188 360.324219 195.132812 L 360.324219 195.875 L 361.976562 195.75 L 361.976562 195.402344 C 361.1875 195.402344 361.097656 195.324219 361.097656 194.769531 L 361.097656 187.941406 L 359.480469 188.066406 L 359.480469 188.414062 C 360.265625 188.414062 360.355469 188.492188 360.355469 189.046875 L 360.355469 191.476562 C 360.03125 191.070312 359.546875 190.777344 358.9375 190.777344 C 357.609375 190.777344 356.429688 191.878906 356.429688 193.332031 Z M 357.363281 193.34375 C 357.363281 192.925781 357.386719 192.25 357.710938 191.746094 C 357.949219 191.394531 358.375 191.023438 358.984375 191.023438 C 359.378906 191.023438 359.851562 191.195312 360.199219 191.699219 C 360.324219 191.890625 360.324219 191.914062 360.324219 192.117188 L 360.324219 194.421875 C 360.324219 194.625 360.324219 194.648438 360.199219 194.839844 C 359.859375 195.378906 359.355469 195.625 358.871094 195.625 C 358.363281 195.625 357.960938 195.332031 357.691406 194.90625 C 357.398438 194.445312 357.363281 193.804688 357.363281 193.34375 Z M 362.402344 193.65625 L 365.394531 193.65625 L 365.394531 192.992188 L 362.402344 192.992188 Z M 366.410156 195.605469 C 366.410156 195.796875 366.410156 195.875 366.53125 195.875 C 366.589844 195.875 366.601562 195.863281 366.8125 195.648438 C 366.835938 195.625 366.835938 195.605469 367.039062 195.390625 C 367.535156 195.863281 368.039062 195.875 368.277344 195.875 C 369.570312 195.875 370.085938 195.121094 370.085938 194.308594 C 370.085938 193.714844 369.75 193.375 369.613281 193.242188 C 369.242188 192.882812 368.804688 192.792969 368.332031 192.703125 C 367.703125 192.578125 366.949219 192.429688 366.949219 191.777344 C 366.949219 191.386719 367.242188 190.921875 368.207031 190.921875 C 369.445312 190.921875 369.503906 191.9375 369.523438 192.285156 C 369.535156 192.386719 369.636719 192.386719 369.660156 192.386719 C 369.804688 192.386719 369.804688 192.328125 369.804688 192.117188 L 369.804688 190.980469 C 369.804688 190.789062 369.804688 190.710938 369.683594 190.710938 C 369.625 190.710938 369.605469 190.710938 369.457031 190.84375 C 369.421875 190.890625 369.3125 190.992188 369.265625 191.023438 C 368.839844 190.710938 368.378906 190.710938 368.207031 190.710938 C 366.835938 190.710938 366.410156 191.464844 366.410156 192.09375 C 366.410156 192.488281 366.589844 192.800781 366.890625 193.050781 C 367.253906 193.34375 367.566406 193.410156 368.378906 193.566406 C 368.625 193.613281 369.546875 193.792969 369.546875 194.601562 C 369.546875 195.175781 369.152344 195.625 368.277344 195.625 C 367.332031 195.625 366.925781 194.984375 366.710938 194.027344 C 366.679688 193.882812 366.667969 193.835938 366.554688 193.835938 C 366.410156 193.835938 366.410156 193.917969 366.410156 194.117188 Z M 370.683594 191.25 L 371.640625 191.25 L 371.640625 194.355469 C 371.640625 195.738281 372.6875 195.875 373.089844 195.875 C 373.890625 195.875 374.203125 195.074219 374.203125 194.355469 L 374.203125 193.714844 L 373.921875 193.714844 L 373.921875 194.332031 C 373.921875 195.164062 373.585938 195.59375 373.171875 195.59375 C 372.417969 195.59375 372.417969 194.570312 372.417969 194.378906 L 372.417969 191.25 L 374.023438 191.25 L 374.023438 190.902344 L 372.417969 190.902344 L 372.417969 188.832031 L 372.136719 188.832031 C 372.125 189.753906 371.785156 190.957031 370.683594 191.003906 Z M 375.679688 188.820312 C 375.679688 189.125 375.925781 189.417969 376.273438 189.417969 C 376.589844 189.417969 376.871094 189.179688 376.871094 188.820312 C 376.871094 188.460938 376.589844 188.222656 376.273438 188.222656 C 375.925781 188.222656 375.679688 188.527344 375.679688 188.820312 Z M 375.207031 195.75 C 375.566406 195.738281 376.171875 195.714844 376.445312 195.714844 C 376.835938 195.714844 377.230469 195.738281 377.613281 195.75 L 377.613281 195.402344 C 376.871094 195.402344 376.828125 195.34375 376.828125 194.90625 L 376.828125 190.777344 L 375.25 190.902344 L 375.25 191.25 C 375.984375 191.25 376.082031 191.316406 376.082031 191.867188 L 376.082031 194.894531 C 376.082031 195.402344 375.960938 195.402344 375.207031 195.402344 Z M 378.332031 193.320312 C 378.332031 194.761719 379.449219 195.875 380.753906 195.875 C 382.261719 195.875 382.621094 194.523438 382.621094 194.410156 C 382.621094 194.296875 382.507812 194.296875 382.472656 194.296875 C 382.371094 194.296875 382.351562 194.34375 382.328125 194.410156 C 382 195.457031 381.269531 195.59375 380.855469 195.59375 C 380.257812 195.59375 379.265625 195.109375 379.265625 193.296875 C 379.265625 191.464844 380.191406 190.992188 380.785156 190.992188 C 380.886719 190.992188 381.597656 191.003906 381.988281 191.40625 C 381.527344 191.441406 381.460938 191.777344 381.460938 191.925781 C 381.460938 192.21875 381.664062 192.441406 381.980469 192.441406 C 382.269531 192.441406 382.496094 192.25 382.496094 191.914062 C 382.496094 191.148438 381.640625 190.710938 380.773438 190.710938 C 379.367188 190.710938 378.332031 191.925781 378.332031 193.320312 Z M 382.945312 195.75 C 383.316406 195.738281 383.847656 195.714844 384.171875 195.714844 C 384.511719 195.714844 384.960938 195.726562 385.410156 195.75 L 385.410156 195.402344 C 384.65625 195.402344 384.53125 195.402344 384.53125 194.894531 L 384.53125 193.734375 L 385.253906 193.117188 C 386.117188 194.308594 386.589844 194.941406 386.589844 195.140625 C 386.589844 195.355469 386.398438 195.402344 386.1875 195.402344 L 386.1875 195.75 C 386.5 195.738281 387.164062 195.714844 387.402344 195.714844 C 387.726562 195.714844 388.054688 195.726562 388.378906 195.75 L 388.378906 195.402344 C 387.964844 195.402344 387.714844 195.402344 387.289062 194.804688 L 385.859375 192.792969 C 385.847656 192.769531 385.792969 192.703125 385.792969 192.667969 C 385.792969 192.621094 386.589844 191.949219 386.703125 191.859375 C 387.414062 191.285156 387.886719 191.261719 388.121094 191.25 L 388.121094 190.902344 C 387.796875 190.933594 387.648438 190.933594 387.332031 190.933594 C 386.929688 190.933594 386.230469 190.914062 386.074219 190.902344 L 386.074219 191.25 C 386.289062 191.261719 386.398438 191.386719 386.398438 191.53125 C 386.398438 191.757812 386.242188 191.890625 386.152344 191.96875 L 384.566406 193.34375 L 384.566406 187.941406 L 382.945312 188.066406 L 382.945312 188.414062 C 383.734375 188.414062 383.824219 188.492188 383.824219 189.046875 L 383.824219 194.894531 C 383.824219 195.402344 383.699219 195.402344 382.945312 195.402344 Z M 389.898438 188.28125 C 389.898438 188.402344 390.214844 191.015625 390.292969 191.847656 L 390.550781 191.847656 C 390.5625 191.722656 390.945312 188.414062 390.945312 188.28125 C 390.945312 187.863281 390.597656 187.761719 390.417969 187.761719 C 390.234375 187.761719 389.898438 187.863281 389.898438 188.28125 Z M 391.789062 188.292969 C 391.789062 188.449219 392.160156 191.6875 392.183594 191.847656 L 392.429688 191.847656 C 392.507812 191.003906 392.824219 188.402344 392.824219 188.28125 C 392.824219 187.863281 392.484375 187.761719 392.304688 187.761719 C 392.035156 187.761719 391.789062 187.929688 391.789062 188.292969 Z M 398.246094 195.75 C 398.683594 195.738281 399.214844 195.714844 399.527344 195.714844 C 399.980469 195.714844 400.507812 195.714844 400.957031 195.75 L 400.957031 195.402344 L 400.722656 195.402344 C 399.890625 195.402344 399.867188 195.277344 399.867188 194.871094 L 399.867188 193.140625 C 399.867188 192.027344 400.339844 191.023438 401.195312 191.023438 C 401.273438 191.023438 401.296875 191.023438 401.316406 191.035156 C 401.285156 191.046875 401.058594 191.183594 401.058594 191.476562 C 401.058594 191.789062 401.296875 191.957031 401.542969 191.957031 C 401.746094 191.957031 402.027344 191.824219 402.027344 191.464844 C 402.027344 191.105469 401.675781 190.777344 401.195312 190.777344 C 400.371094 190.777344 399.96875 191.53125 399.808594 192.015625 L 399.808594 190.777344 L 398.246094 190.902344 L 398.246094 191.25 C 399.035156 191.25 399.125 191.328125 399.125 191.878906 L 399.125 194.894531 C 399.125 195.402344 399 195.402344 398.246094 195.402344 Z M 402.644531 193.273438 C 402.644531 194.78125 403.828125 195.875 405.121094 195.875 C 406.492188 195.875 407 194.625 407 194.410156 C 407 194.296875 406.910156 194.277344 406.851562 194.277344 C 406.75 194.277344 406.730469 194.34375 406.707031 194.433594 C 406.3125 195.59375 405.300781 195.59375 405.1875 195.59375 C 404.625 195.59375 404.175781 195.253906 403.917969 194.839844 C 403.578125 194.296875 403.578125 193.554688 403.578125 193.152344 L 406.71875 193.152344 C 406.964844 193.152344 407 193.152344 407 192.914062 C 407 191.800781 406.390625 190.710938 404.984375 190.710938 C 403.679688 190.710938 402.644531 191.867188 402.644531 193.273438 Z M 403.589844 192.914062 C 403.65625 191.238281 404.601562 190.957031 404.984375 190.957031 C 406.144531 190.957031 406.257812 192.476562 406.257812 192.914062 Z M 407.640625 197.582031 L 407.640625 197.933594 C 408.023438 197.921875 408.609375 197.898438 408.898438 197.898438 C 409.203125 197.898438 409.777344 197.921875 410.171875 197.933594 L 410.171875 197.582031 C 409.417969 197.582031 409.292969 197.582031 409.292969 197.078125 L 409.292969 195.085938 C 409.351562 195.265625 409.824219 195.875 410.675781 195.875 C 412.015625 195.875 413.1875 194.769531 413.1875 193.320312 C 413.1875 191.890625 412.09375 190.777344 410.835938 190.777344 C 409.957031 190.777344 409.484375 191.273438 409.261719 191.519531 L 409.261719 190.777344 L 407.640625 190.902344 L 407.640625 191.25 C 408.4375 191.25 408.515625 191.316406 408.515625 191.8125 L 408.515625 197.078125 C 408.515625 197.582031 408.394531 197.582031 407.640625 197.582031 Z M 409.292969 194.46875 L 409.292969 191.957031 C 409.621094 191.386719 410.171875 191.058594 410.746094 191.058594 C 411.566406 191.058594 412.253906 192.046875 412.253906 193.320312 C 412.253906 194.679688 411.464844 195.625 410.632812 195.625 C 410.183594 195.625 409.753906 195.402344 409.453125 194.941406 C 409.292969 194.703125 409.292969 194.691406 409.292969 194.46875 Z M 413.882812 195.75 C 414.324219 195.738281 414.851562 195.714844 415.167969 195.714844 C 415.617188 195.714844 416.144531 195.714844 416.59375 195.75 L 416.59375 195.402344 L 416.359375 195.402344 C 415.527344 195.402344 415.503906 195.277344 415.503906 194.871094 L 415.503906 193.140625 C 415.503906 192.027344 415.976562 191.023438 416.832031 191.023438 C 416.910156 191.023438 416.933594 191.023438 416.953125 191.035156 C 416.921875 191.046875 416.695312 191.183594 416.695312 191.476562 C 416.695312 191.789062 416.933594 191.957031 417.179688 191.957031 C 417.382812 191.957031 417.664062 191.824219 417.664062 191.464844 C 417.664062 191.105469 417.316406 190.777344 416.832031 190.777344 C 416.011719 190.777344 415.605469 191.53125 415.449219 192.015625 L 415.449219 190.777344 L 413.882812 190.902344 L 413.882812 191.25 C 414.671875 191.25 414.761719 191.328125 414.761719 191.878906 L 414.761719 194.894531 C 414.761719 195.402344 414.636719 195.402344 413.882812 195.402344 Z M 418.28125 193.273438 C 418.28125 194.78125 419.464844 195.875 420.757812 195.875 C 422.128906 195.875 422.636719 194.625 422.636719 194.410156 C 422.636719 194.296875 422.546875 194.277344 422.488281 194.277344 C 422.390625 194.277344 422.367188 194.34375 422.34375 194.433594 C 421.949219 195.59375 420.9375 195.59375 420.824219 195.59375 C 420.261719 195.59375 419.8125 195.253906 419.554688 194.839844 C 419.214844 194.296875 419.214844 193.554688 419.214844 193.152344 L 422.355469 193.152344 C 422.601562 193.152344 422.636719 193.152344 422.636719 192.914062 C 422.636719 191.800781 422.027344 190.710938 420.621094 190.710938 C 419.316406 190.710938 418.28125 191.867188 418.28125 193.273438 Z M 419.226562 192.914062 C 419.296875 191.238281 420.238281 190.957031 420.621094 190.957031 C 421.78125 190.957031 421.894531 192.476562 421.894531 192.914062 Z M 423.332031 195.605469 C 423.332031 195.796875 423.332031 195.875 423.457031 195.875 C 423.515625 195.875 423.523438 195.863281 423.738281 195.648438 C 423.761719 195.625 423.761719 195.605469 423.964844 195.390625 C 424.457031 195.863281 424.964844 195.875 425.203125 195.875 C 426.496094 195.875 427.011719 195.121094 427.011719 194.308594 C 427.011719 193.714844 426.675781 193.375 426.539062 193.242188 C 426.167969 192.882812 425.730469 192.792969 425.257812 192.703125 C 424.628906 192.578125 423.875 192.429688 423.875 191.777344 C 423.875 191.386719 424.167969 190.921875 425.132812 190.921875 C 426.371094 190.921875 426.425781 191.9375 426.449219 192.285156 C 426.460938 192.386719 426.5625 192.386719 426.585938 192.386719 C 426.730469 192.386719 426.730469 192.328125 426.730469 192.117188 L 426.730469 190.980469 C 426.730469 190.789062 426.730469 190.710938 426.609375 190.710938 C 426.550781 190.710938 426.527344 190.710938 426.382812 190.84375 C 426.347656 190.890625 426.234375 190.992188 426.191406 191.023438 C 425.765625 190.710938 425.300781 190.710938 425.132812 190.710938 C 423.761719 190.710938 423.332031 191.464844 423.332031 192.09375 C 423.332031 192.488281 423.515625 192.800781 423.816406 193.050781 C 424.175781 193.34375 424.492188 193.410156 425.300781 193.566406 C 425.550781 193.613281 426.472656 193.792969 426.472656 194.601562 C 426.472656 195.175781 426.078125 195.625 425.203125 195.625 C 424.257812 195.625 423.851562 194.984375 423.636719 194.027344 C 423.605469 193.882812 423.59375 193.835938 423.480469 193.835938 C 423.332031 193.835938 423.332031 193.917969 423.332031 194.117188 Z M 427.710938 193.273438 C 427.710938 194.78125 428.890625 195.875 430.183594 195.875 C 431.558594 195.875 432.0625 194.625 432.0625 194.410156 C 432.0625 194.296875 431.972656 194.277344 431.917969 194.277344 C 431.816406 194.277344 431.792969 194.34375 431.769531 194.433594 C 431.378906 195.59375 430.363281 195.59375 430.253906 195.59375 C 429.691406 195.59375 429.238281 195.253906 428.980469 194.839844 C 428.644531 194.296875 428.644531 193.554688 428.644531 193.152344 L 431.78125 193.152344 C 432.03125 193.152344 432.0625 193.152344 432.0625 192.914062 C 432.0625 191.800781 431.457031 190.710938 430.050781 190.710938 C 428.746094 190.710938 427.710938 191.867188 427.710938 193.273438 Z M 428.65625 192.914062 C 428.722656 191.238281 429.667969 190.957031 430.050781 190.957031 C 431.207031 190.957031 431.320312 192.476562 431.320312 192.914062 Z M 432.75 195.75 C 433.144531 195.738281 433.71875 195.714844 434.019531 195.714844 C 434.3125 195.714844 434.898438 195.738281 435.28125 195.75 L 435.28125 195.402344 C 434.527344 195.402344 434.402344 195.402344 434.402344 194.894531 L 434.402344 192.824219 C 434.402344 191.65625 435.203125 191.023438 435.921875 191.023438 C 436.632812 191.023438 436.753906 191.632812 436.753906 192.273438 L 436.753906 194.894531 C 436.753906 195.402344 436.632812 195.402344 435.878906 195.402344 L 435.878906 195.75 C 436.269531 195.738281 436.84375 195.714844 437.148438 195.714844 C 437.441406 195.714844 438.027344 195.738281 438.410156 195.75 L 438.410156 195.402344 C 437.824219 195.402344 437.542969 195.402344 437.53125 195.0625 L 437.53125 192.914062 C 437.53125 191.949219 437.53125 191.597656 437.183594 191.195312 C 437.023438 191.003906 436.652344 190.777344 436 190.777344 C 435.179688 190.777344 434.652344 191.261719 434.335938 191.957031 L 434.335938 190.777344 L 432.75 190.902344 L 432.75 191.25 C 433.539062 191.25 433.628906 191.328125 433.628906 191.878906 L 433.628906 194.894531 C 433.628906 195.402344 433.503906 195.402344 432.75 195.402344 Z M 438.53125 191.25 L 439.488281 191.25 L 439.488281 194.355469 C 439.488281 195.738281 440.535156 195.875 440.941406 195.875 C 441.738281 195.875 442.054688 195.074219 442.054688 194.355469 L 442.054688 193.714844 L 441.773438 193.714844 L 441.773438 194.332031 C 441.773438 195.164062 441.433594 195.59375 441.019531 195.59375 C 440.265625 195.59375 440.265625 194.570312 440.265625 194.378906 L 440.265625 191.25 L 441.875 191.25 L 441.875 190.902344 L 440.265625 190.902344 L 440.265625 188.832031 L 439.984375 188.832031 C 439.972656 189.753906 439.636719 190.957031 438.53125 191.003906 Z M 443.15625 194.679688 C 443.15625 195.59375 444.246094 195.875 444.957031 195.875 C 445.699219 195.875 446.214844 195.421875 446.429688 194.894531 C 446.476562 195.34375 446.777344 195.816406 447.308594 195.816406 C 447.542969 195.816406 448.230469 195.660156 448.230469 194.75 L 448.230469 194.117188 L 447.949219 194.117188 L 447.949219 194.75 C 447.949219 195.402344 447.667969 195.46875 447.542969 195.46875 C 447.171875 195.46875 447.128906 194.960938 447.128906 194.90625 L 447.128906 192.65625 C 447.128906 192.183594 447.128906 191.746094 446.722656 191.328125 C 446.285156 190.890625 445.722656 190.710938 445.179688 190.710938 C 444.257812 190.710938 443.484375 191.238281 443.484375 191.980469 C 443.484375 192.320312 443.707031 192.511719 444 192.511719 C 444.316406 192.511719 444.515625 192.285156 444.515625 191.992188 C 444.515625 191.859375 444.460938 191.484375 443.945312 191.476562 C 444.246094 191.082031 444.796875 190.957031 445.160156 190.957031 C 445.710938 190.957031 446.351562 191.394531 446.351562 192.398438 L 446.351562 192.8125 C 445.777344 192.847656 444.988281 192.882812 444.28125 193.21875 C 443.4375 193.601562 443.15625 194.1875 443.15625 194.679688 Z M 444.023438 194.671875 C 444.023438 194.050781 444.496094 193.117188 446.351562 193.050781 L 446.351562 194.175781 C 446.351562 195.242188 445.542969 195.625 445.035156 195.625 C 444.484375 195.625 444.023438 195.234375 444.023438 194.671875 Z M 448.523438 191.25 L 449.480469 191.25 L 449.480469 194.355469 C 449.480469 195.738281 450.523438 195.875 450.929688 195.875 C 451.730469 195.875 452.042969 195.074219 452.042969 194.355469 L 452.042969 193.714844 L 451.761719 193.714844 L 451.761719 194.332031 C 451.761719 195.164062 451.425781 195.59375 451.007812 195.59375 C 450.253906 195.59375 450.253906 194.570312 450.253906 194.378906 L 450.253906 191.25 L 451.863281 191.25 L 451.863281 190.902344 L 450.253906 190.902344 L 450.253906 188.832031 L 449.972656 188.832031 C 449.960938 189.753906 449.625 190.957031 448.523438 191.003906 Z M 453.515625 188.820312 C 453.515625 189.125 453.765625 189.417969 454.113281 189.417969 C 454.429688 189.417969 454.710938 189.179688 454.710938 188.820312 C 454.710938 188.460938 454.429688 188.222656 454.113281 188.222656 C 453.765625 188.222656 453.515625 188.527344 453.515625 188.820312 Z M 453.046875 195.75 C 453.40625 195.738281 454.011719 195.714844 454.28125 195.714844 C 454.675781 195.714844 455.070312 195.738281 455.453125 195.75 L 455.453125 195.402344 C 454.710938 195.402344 454.664062 195.34375 454.664062 194.90625 L 454.664062 190.777344 L 453.089844 190.902344 L 453.089844 191.25 C 453.820312 191.25 453.921875 191.316406 453.921875 191.867188 L 453.921875 194.894531 C 453.921875 195.402344 453.796875 195.402344 453.046875 195.402344 Z M 456.105469 193.34375 C 456.105469 194.792969 457.273438 195.875 458.589844 195.875 C 459.953125 195.875 461.089844 194.769531 461.089844 193.34375 C 461.089844 191.902344 459.964844 190.710938 458.601562 190.710938 C 457.195312 190.710938 456.105469 191.9375 456.105469 193.34375 Z M 457.039062 193.253906 C 457.039062 192.8125 457.039062 192.207031 457.308594 191.710938 C 457.613281 191.195312 458.140625 190.957031 458.589844 190.957031 C 459.085938 190.957031 459.570312 191.203125 459.863281 191.6875 C 460.15625 192.171875 460.15625 192.824219 460.15625 193.253906 C 460.15625 193.65625 460.15625 194.265625 459.90625 194.761719 C 459.660156 195.265625 459.164062 195.59375 458.601562 195.59375 C 458.117188 195.59375 457.625 195.355469 457.320312 194.839844 C 457.039062 194.34375 457.039062 193.65625 457.039062 193.253906 Z M 461.773438 195.75 C 462.167969 195.738281 462.742188 195.714844 463.046875 195.714844 C 463.339844 195.714844 463.921875 195.738281 464.304688 195.75 L 464.304688 195.402344 C 463.550781 195.402344 463.429688 195.402344 463.429688 194.894531 L 463.429688 192.824219 C 463.429688 191.65625 464.226562 191.023438 464.949219 191.023438 C 465.65625 191.023438 465.78125 191.632812 465.78125 192.273438 L 465.78125 194.894531 C 465.78125 195.402344 465.65625 195.402344 464.902344 195.402344 L 464.902344 195.75 C 465.296875 195.738281 465.871094 195.714844 466.171875 195.714844 C 466.464844 195.714844 467.050781 195.738281 467.433594 195.75 L 467.433594 195.402344 C 466.847656 195.402344 466.566406 195.402344 466.554688 195.0625 L 466.554688 192.914062 C 466.554688 191.949219 466.554688 191.597656 466.207031 191.195312 C 466.050781 191.003906 465.679688 190.777344 465.027344 190.777344 C 464.203125 190.777344 463.675781 191.261719 463.359375 191.957031 L 463.359375 190.777344 L 461.773438 190.902344 L 461.773438 191.25 C 462.5625 191.25 462.652344 191.328125 462.652344 191.878906 L 462.652344 194.894531 C 462.652344 195.402344 462.527344 195.402344 461.773438 195.402344 Z M 461.773438 195.75 "
     id="path110" />
</svg>
